<svg id="visual" viewBox="0 0 900 600" width="900" height="600" xmlns="http://www.w3.org/2000/svg" xmlns:xlink="http://www.w3.org/1999/xlink" version="1.1"><g stroke-width="1" stroke-linejoin="bevel"><path d="M429 280L475 374L503 295Z" fill="#7b6962" stroke="#7b6962"></path><path d="M618 422L568 263L503 295Z" fill="#817267" stroke="#817267"></path><path d="M503 295L512 189L429 280Z" fill="#574952" stroke="#574952"></path><path d="M429 280L373 438L475 374Z" fill="#403c48" stroke="#403c48"></path><path d="M512 189L361 217L429 280Z" fill="#202a32" stroke="#202a32"></path><path d="M429 280L311 405L373 438Z" fill="#202a32" stroke="#202a32"></path><path d="M560 212L512 189L503 295Z" fill="#403c48" stroke="#403c48"></path><path d="M568 263L560 212L503 295Z" fill="#353641" stroke="#353641"></path><path d="M361 217L302 294L429 280Z" fill="#353641" stroke="#353641"></path><path d="M302 294L311 405L429 280Z" fill="#2a303a" stroke="#2a303a"></path><path d="M564 503L618 422L475 374Z" fill="#74605e" stroke="#74605e"></path><path d="M475 374L618 422L503 295Z" fill="#353641" stroke="#353641"></path><path d="M568 263L725 164L560 212Z" fill="#2a303a" stroke="#2a303a"></path><path d="M374 539L474 511L373 438Z" fill="#7b6962" stroke="#7b6962"></path><path d="M373 438L474 511L475 374Z" fill="#4c424d" stroke="#4c424d"></path><path d="M474 511L564 503L475 374Z" fill="#625056" stroke="#625056"></path><path d="M618 422L668 328L568 263Z" fill="#74605e" stroke="#74605e"></path><path d="M220 416L303 479L311 405Z" fill="#574952" stroke="#574952"></path><path d="M311 405L303 479L373 438Z" fill="#7b6962" stroke="#7b6962"></path><path d="M395 101L330 134L361 217Z" fill="#4c424d" stroke="#4c424d"></path><path d="M361 217L260 206L302 294Z" fill="#202a32" stroke="#202a32"></path><path d="M725 164L589 134L560 212Z" fill="#74605e" stroke="#74605e"></path><path d="M560 212L589 134L512 189Z" fill="#817267" stroke="#817267"></path><path d="M512 189L395 101L361 217Z" fill="#625056" stroke="#625056"></path><path d="M330 134L260 206L361 217Z" fill="#817267" stroke="#817267"></path><path d="M199 313L220 416L311 405Z" fill="#403c48" stroke="#403c48"></path><path d="M303 479L374 539L373 438Z" fill="#353641" stroke="#353641"></path><path d="M474 511L522 600L564 503Z" fill="#403c48" stroke="#403c48"></path><path d="M521 96L395 101L512 189Z" fill="#2a303a" stroke="#2a303a"></path><path d="M589 134L521 96L512 189Z" fill="#202a32" stroke="#202a32"></path><path d="M714 464L687 398L618 422Z" fill="#353641" stroke="#353641"></path><path d="M618 422L687 398L668 328Z" fill="#202a32" stroke="#202a32"></path><path d="M199 313L311 405L302 294Z" fill="#817267" stroke="#817267"></path><path d="M310 600L417 600L374 539Z" fill="#817267" stroke="#817267"></path><path d="M195 233L199 313L302 294Z" fill="#202a32" stroke="#202a32"></path><path d="M225 69L195 233L260 206Z" fill="#574952" stroke="#574952"></path><path d="M260 206L195 233L302 294Z" fill="#353641" stroke="#353641"></path><path d="M310 600L374 539L303 479Z" fill="#353641" stroke="#353641"></path><path d="M374 539L417 600L474 511Z" fill="#625056" stroke="#625056"></path><path d="M417 600L522 600L474 511Z" fill="#2a303a" stroke="#2a303a"></path><path d="M564 503L714 464L618 422Z" fill="#625056" stroke="#625056"></path><path d="M591 600L714 464L564 503Z" fill="#625056" stroke="#625056"></path><path d="M782 181L725 164L668 328Z" fill="#6b585a" stroke="#6b585a"></path><path d="M99 386L203 473L220 416Z" fill="#74605e" stroke="#74605e"></path><path d="M220 416L203 473L303 479Z" fill="#817267" stroke="#817267"></path><path d="M99 386L220 416L199 313Z" fill="#74605e" stroke="#74605e"></path><path d="M522 600L591 600L564 503Z" fill="#4c424d" stroke="#4c424d"></path><path d="M668 328L725 164L568 263Z" fill="#817267" stroke="#817267"></path><path d="M575 0L525 0L521 96Z" fill="#574952" stroke="#574952"></path><path d="M795 373L668 328L687 398Z" fill="#6b585a" stroke="#6b585a"></path><path d="M199 600L310 600L303 479Z" fill="#7b6962" stroke="#7b6962"></path><path d="M395 101L326 0L330 134Z" fill="#74605e" stroke="#74605e"></path><path d="M330 134L225 69L260 206Z" fill="#2a303a" stroke="#2a303a"></path><path d="M521 96L405 0L395 101Z" fill="#574952" stroke="#574952"></path><path d="M525 0L405 0L521 96Z" fill="#353641" stroke="#353641"></path><path d="M575 0L521 96L589 134Z" fill="#574952" stroke="#574952"></path><path d="M714 464L795 373L687 398Z" fill="#403c48" stroke="#403c48"></path><path d="M796 127L699 82L725 164Z" fill="#7b6962" stroke="#7b6962"></path><path d="M725 164L699 82L589 134Z" fill="#4c424d" stroke="#4c424d"></path><path d="M699 82L575 0L589 134Z" fill="#4c424d" stroke="#4c424d"></path><path d="M326 0L225 69L330 134Z" fill="#353641" stroke="#353641"></path><path d="M405 0L326 0L395 101Z" fill="#4c424d" stroke="#4c424d"></path><path d="M815 313L782 181L668 328Z" fill="#353641" stroke="#353641"></path><path d="M795 373L815 313L668 328Z" fill="#7b6962" stroke="#7b6962"></path><path d="M730 600L788 467L714 464Z" fill="#353641" stroke="#353641"></path><path d="M714 464L788 467L795 373Z" fill="#817267" stroke="#817267"></path><path d="M900 392L900 299L815 313Z" fill="#403c48" stroke="#403c48"></path><path d="M79 268L99 386L199 313Z" fill="#7b6962" stroke="#7b6962"></path><path d="M203 473L199 600L303 479Z" fill="#403c48" stroke="#403c48"></path><path d="M79 268L199 313L195 233Z" fill="#7b6962" stroke="#7b6962"></path><path d="M101 486L199 600L203 473Z" fill="#7b6962" stroke="#7b6962"></path><path d="M75 160L79 268L195 233Z" fill="#2a303a" stroke="#2a303a"></path><path d="M591 600L730 600L714 464Z" fill="#817267" stroke="#817267"></path><path d="M900 181L796 127L782 181Z" fill="#817267" stroke="#817267"></path><path d="M782 181L796 127L725 164Z" fill="#202a32" stroke="#202a32"></path><path d="M699 82L681 0L575 0Z" fill="#353641" stroke="#353641"></path><path d="M0 437L101 486L99 386Z" fill="#74605e" stroke="#74605e"></path><path d="M99 386L101 486L203 473Z" fill="#574952" stroke="#574952"></path><path d="M835 0L681 0L699 82Z" fill="#625056" stroke="#625056"></path><path d="M326 0L205 0L225 69Z" fill="#625056" stroke="#625056"></path><path d="M87 128L75 160L195 233Z" fill="#817267" stroke="#817267"></path><path d="M87 128L195 233L225 69Z" fill="#6b585a" stroke="#6b585a"></path><path d="M122 0L87 128L225 69Z" fill="#403c48" stroke="#403c48"></path><path d="M900 392L815 313L795 373Z" fill="#2a303a" stroke="#2a303a"></path><path d="M815 313L900 181L782 181Z" fill="#74605e" stroke="#74605e"></path><path d="M900 392L795 373L788 467Z" fill="#403c48" stroke="#403c48"></path><path d="M900 538L900 392L788 467Z" fill="#353641" stroke="#353641"></path><path d="M79 268L0 335L99 386Z" fill="#574952" stroke="#574952"></path><path d="M0 196L0 335L79 268Z" fill="#4c424d" stroke="#4c424d"></path><path d="M0 196L79 268L75 160Z" fill="#7b6962" stroke="#7b6962"></path><path d="M900 299L900 181L815 313Z" fill="#574952" stroke="#574952"></path><path d="M796 127L835 0L699 82Z" fill="#7b6962" stroke="#7b6962"></path><path d="M730 600L834 600L788 467Z" fill="#74605e" stroke="#74605e"></path><path d="M205 0L122 0L225 69Z" fill="#2a303a" stroke="#2a303a"></path><path d="M0 133L0 196L75 160Z" fill="#574952" stroke="#574952"></path><path d="M0 335L0 437L99 386Z" fill="#625056" stroke="#625056"></path><path d="M101 486L75 600L199 600Z" fill="#202a32" stroke="#202a32"></path><path d="M0 497L75 600L101 486Z" fill="#817267" stroke="#817267"></path><path d="M0 133L75 160L87 128Z" fill="#7b6962" stroke="#7b6962"></path><path d="M900 181L900 115L796 127Z" fill="#403c48" stroke="#403c48"></path><path d="M0 437L0 497L101 486Z" fill="#625056" stroke="#625056"></path><path d="M834 600L900 538L788 467Z" fill="#574952" stroke="#574952"></path><path d="M900 115L835 0L796 127Z" fill="#353641" stroke="#353641"></path><path d="M0 0L0 133L87 128Z" fill="#817267" stroke="#817267"></path><path d="M834 600L900 600L900 538Z" fill="#353641" stroke="#353641"></path><path d="M0 497L0 600L75 600Z" fill="#7b6962" stroke="#7b6962"></path><path d="M900 115L900 0L835 0Z" fill="#625056" stroke="#625056"></path><path d="M122 0L0 0L87 128Z" fill="#74605e" stroke="#74605e"></path></g></svg>